# xmcd CD database file
#
# Track frame offsets:
#	150
#	15226
#	30346
#	51240
#	69174
#	83123
#	101010
#	117847
#	134517
#	152075
#	179752
#	203750
#	230007
#
# Disc length: 3549 seconds
#
# Revision: 0
# Processed by: cddbd v1.5.1PL0 Copyright (c) Steve Scherf et al.
# Submitted via: CDex 1.51
#
DISCID=a50ddb0d
DTITLE=Jason Boland and The Stragglers - Somewhere In The Middle
DYEAR=2004
DGENRE=Country
TTITLE0="Hank"
TTITLE1=When I'm Stoned
TTITLE2=Somewhere In The Middle
TTITLE3=If You Want To Hear A Love Song
TTITLE4=Back To You
TTITLE5=Stand Up To The Man
TTITLE6=Radio's Misbehaving
TTITLE7=Dirty Fightin' Love
TTITLE8=12 Oz. Curls
TTITLE9=Mary
TTITLE10=Thunderbird Wine
TTITLE11=Hell or Bust
TTITLE12=Hidden Track
EXTD=YEAR: 2004
EXTT0=
EXTT1=
EXTT2=
EXTT3=
EXTT4=
EXTT5=
EXTT6=
EXTT7=
EXTT8=
EXTT9=
EXTT10=
EXTT11=
EXTT12=
PLAYORDER=
